<svg width="25" height="25" viewBox="0 0 25 25" fill="none" xmlns="http://www.w3.org/2000/svg">
<path d="M22.7051 21.0449L18.7305 17.0703C20.0142 15.4321 20.709 13.4094 20.7031 11.3281C20.7031 9.47393 20.1533 7.66137 19.1232 6.11966C18.093 4.57795 16.6288 3.37633 14.9158 2.66676C13.2027 1.95719 11.3177 1.77153 9.49916 2.13327C7.68059 2.495 6.01012 3.38789 4.699 4.699C3.38789 6.01012 2.495 7.68059 2.13327 9.49916C1.77153 11.3177 1.95719 13.2027 2.66676 14.9158C3.37633 16.6288 4.57795 18.093 6.11966 19.1232C7.66137 20.1533 9.47393 20.7031 11.3281 20.7031C13.4094 20.709 15.4321 20.0142 17.0703 18.7305L21.0449 22.7051C21.2661 22.9234 21.5643 23.0457 21.875 23.0457C22.1857 23.0457 22.4839 22.9234 22.7051 22.7051C22.8143 22.5962 22.901 22.4668 22.9602 22.3244C23.0193 22.182 23.0498 22.0292 23.0498 21.875C23.0498 21.7208 23.0193 21.5681 22.9602 21.4256C22.901 21.2832 22.8143 21.1538 22.7051 21.0449ZM4.29688 11.3281C4.29688 9.93748 4.70926 8.57806 5.48186 7.42178C6.25446 6.26549 7.35259 5.36428 8.63739 4.8321C9.92218 4.29992 11.3359 4.16068 12.6999 4.43198C14.0638 4.70329 15.3166 5.37295 16.3 6.35628C17.2833 7.33962 17.953 8.59247 18.2243 9.9564C18.4956 11.3203 18.3563 12.7341 17.8242 14.0189C17.292 15.3037 16.3908 16.4018 15.2345 17.1744C14.0782 17.947 12.7188 18.3594 11.3281 18.3594C9.46412 18.3568 7.67719 17.6152 6.35914 16.2971C5.04108 14.9791 4.29946 13.1921 4.29688 11.3281Z" fill="#93B233"/>
</svg>
