<svg width="15" height="15" viewBox="0 0 15 15" fill="none" xmlns="http://www.w3.org/2000/svg">
<path d="M14.5851 6.99999C14.5308 7.00036 14.477 6.98821 14.4268 6.96426C14.3765 6.9403 14.3308 6.905 14.2923 6.86038L9.09918 0.794555C9.03161 0.702459 8.9963 0.583995 9.00031 0.462834C9.00432 0.341673 9.04735 0.226741 9.12081 0.141003C9.19427 0.055266 9.29275 0.00503894 9.39656 0.00035903C9.50037 -0.00432088 9.60187 0.0368912 9.68078 0.11576L14.878 6.17677C14.9362 6.24411 14.9758 6.33014 14.9919 6.42389C15.0081 6.51765 14.9999 6.61488 14.9685 6.70319C14.9371 6.7915 14.8838 6.8669 14.8155 6.91976C14.7473 6.97262 14.6671 7.00055 14.5851 6.99999Z" fill="#5B933A"/>
<path d="M9.04809 2L5.72711 5.32098C4.84306 5.10782 3.91926 5.12351 3.04295 5.36655C2.16664 5.60959 1.36673 6.07196 0.718751 6.71001C0.672908 6.75548 0.636522 6.80958 0.611691 6.86918C0.586861 6.92878 0.574076 6.99271 0.574076 7.05727C0.574076 7.12184 0.586861 7.18577 0.611691 7.24537C0.636522 7.30497 0.672908 7.35906 0.718751 7.40453L3.80985 10.5152L0.170961 14.1394C0.119761 14.1833 0.078178 14.2372 0.0488208 14.2979C0.0194635 14.3586 0.00296622 14.4247 0.000364467 14.492C-0.00223729 14.5594 0.00911263 14.6266 0.0337018 14.6893C0.058291 14.7521 0.0955885 14.8091 0.143253 14.8567C0.190918 14.9044 0.247922 14.9417 0.310685 14.9663C0.373449 14.9909 0.440617 15.0022 0.507976 14.9996C0.575334 14.997 0.641427 14.9805 0.702107 14.9512C0.762787 14.9218 0.816743 14.8802 0.860589 14.829L4.49948 11.1902L7.59547 14.2861C7.64117 14.3315 7.69537 14.3673 7.75496 14.3917C7.81455 14.416 7.87836 14.4284 7.94273 14.428C8.00744 14.4277 8.07145 14.4146 8.13106 14.3894C8.19067 14.3642 8.24469 14.3275 8.28999 14.2812C8.9257 13.6317 9.38651 12.8317 9.62941 11.9559C9.8723 11.0801 9.88937 10.1571 9.67902 9.27289L13 5.95191L9.04809 2Z" fill="#5B933A"/>
</svg>
