<svg width="120" height="28" viewBox="0 0 120 28" fill="none" xmlns="http://www.w3.org/2000/svg">
<g clip-path="url(#clip0_50_62)">
<path d="M5.57657 22.4336H0V28H5.57657V22.4336Z" fill="#EF8944"/>
<path d="M116.583 5.71094C114.702 5.71094 113.166 7.24824 113.166 9.12195C113.166 10.9957 114.706 12.533 116.583 12.533C118.46 12.533 120 10.9957 120 9.12195C120 7.24824 118.46 5.71094 116.583 5.71094Z" fill="#EF8944"/>
<path d="M26.7149 6.49365C20.7856 6.49365 17.192 10.6166 17.192 15.6549C17.192 20.6932 20.864 24.8161 26.7149 24.8161C29.4307 24.8161 31.7624 23.8616 33.714 21.9918L31.1119 18.4048C30.042 19.5861 28.3569 20.2355 26.7894 20.2355C25.7548 20.2355 24.9514 20.0438 24.3048 19.6644L34.9367 13.214C33.522 7.90578 29.125 6.49365 26.7149 6.49365ZM22.1651 16.3433C22.1259 16.0773 22.0867 15.9248 22.0867 15.6549C22.0867 13.1357 24.0383 11.0743 26.7894 11.0743C27.8984 11.0743 28.7018 11.5319 29.2739 12.1813L22.1612 16.3433H22.1651Z" fill="#01764B"/>
<path d="M43.135 0.0546875H38.1423V24.8041H43.135V0.0546875Z" fill="#01764B"/>
<path d="M77.4605 6.50501C71.5312 6.41113 67.8749 10.4793 67.7965 15.5176C67.7182 20.5167 71.3235 24.7375 77.1744 24.8274C79.8902 24.8705 82.2376 23.9512 84.2166 22.1127L81.6733 18.4827C80.5838 19.6483 78.8909 20.2703 77.3233 20.2468C76.2927 20.2312 75.4893 20.0278 74.8466 19.6366L85.5804 13.3505C84.248 8.02275 79.8745 6.54022 77.4644 6.50501H77.4605ZM72.7539 16.2804C72.7186 16.0144 72.6834 15.8579 72.6873 15.5919C72.7265 13.0728 74.7094 11.0426 77.4644 11.0856C78.5734 11.1013 79.369 11.5746 79.9333 12.2318L72.7539 16.2804Z" fill="#01764B"/>
<path d="M12.7951 14.7822C12.5756 14.5984 12.3366 14.4223 12.0818 14.2541C11.012 13.5461 9.44836 13.2371 8.15905 12.8929C6.76785 12.5213 5.69407 12.1105 5.90177 11.113C5.98407 10.7219 6.25055 9.95518 7.92783 9.91997C8.78215 9.90433 10.7338 10.2955 11.4078 11.3908L14.4371 8.16362C11.4666 4.99122 1.23047 4.06023 0.548584 11.4416V11.958C0.634799 13.331 1.20304 14.4223 2.07303 15.2555C2.5237 15.6858 3.05275 16.0496 3.63666 16.3508C3.98936 16.5347 4.38125 16.6872 4.78489 16.8202C5.32178 16.9963 5.87434 17.141 6.42298 17.2857C7.98662 17.6925 9.45228 18.1306 9.20931 19.2963C9.05255 20.0552 8.38634 20.4464 7.54378 20.5755C7.18717 20.6302 6.80312 20.642 6.43082 20.6185C5.81164 20.6107 5.15719 20.3955 4.57327 20.1256C4.32638 20.02 4.09125 19.8987 3.87571 19.7579C3.44072 19.5037 3.10761 19.2611 2.95478 19.132C2.91559 19.0968 2.88815 19.0734 2.87248 19.0577L1.05804 20.9979L0.717096 21.3617H6.63852V24.894C6.67379 24.8979 6.70514 24.9018 6.74041 24.9057C7.04217 24.9409 7.35176 24.9566 7.66919 24.9566C10.2556 24.9566 12.5168 23.7557 13.7395 21.9719C13.9786 21.6199 14.1784 21.2483 14.3352 20.8571C14.3352 20.8493 14.343 20.8375 14.347 20.8297V20.818C14.5821 20.2195 14.7075 19.5819 14.7075 18.9169C14.7075 17.8686 14.3979 16.8828 13.8493 16.0222C13.5593 15.5685 13.2066 15.1499 12.7951 14.7783V14.7822Z" fill="#01764B"/>
<path d="M112.868 11.833C112.868 11.833 112.868 11.8604 112.868 11.8721V24.816H117.762V13.6441C117.762 13.6441 114.365 14.3561 112.868 11.833Z" fill="#01764B"/>
<path d="M93.8493 0L88.9546 2.91813V21.002C88.9546 23.1025 90.6593 24.8041 92.7637 24.8041H95.2679L95.8636 19.5937H93.8493V11.3244H97.2744V6.43867H93.8493V0Z" fill="#01764B"/>
<path d="M105.825 0L100.931 2.91813V21.002C100.931 23.1025 102.635 24.8041 104.74 24.8041H107.244L107.84 19.5937H105.825V11.3244H109.25V6.43867H105.825V0Z" fill="#01764B"/>
<path d="M63.9757 11.0779C61.8399 6.85715 56.181 5.07732 51.6038 7.46737V0.277655V0.0546875H46.7169V15.7993C46.6895 18.2167 48.1042 20.8571 49.9618 22.4336C57.4468 28.7862 68.8743 20.7672 63.9757 11.0818V11.0779ZM51.4705 15.5177C51.5646 9.93175 59.8765 9.94739 59.9706 15.5177C59.8765 21.0958 51.5646 21.0958 51.4705 15.5177Z" fill="#01764B"/>
</g>
<defs>
<clipPath id="clip0_50_62">
<rect width="120" height="28" fill="white"/>
</clipPath>
</defs>
</svg>
